<?xml version="1.0" encoding="UTF-8"?>
<svg id="Lager_1" data-name="Lager 1" xmlns="http://www.w3.org/2000/svg" viewBox="0 0 2280 1018">
  <defs>
    <style>
      .cls-1 {
        fill: #5dcfff;
      }
    </style>
  </defs>
  <path class="cls-1" d="M968.44,511.86l-33.46,269.08c-.89,9.18-.78,18.23.43,28.16,8.29,67.49,70.69,116.25,138.18,107.96,58.56-7.19,102.2-53.86,108.28-111.02l33.46-269.08c.88-9.18.78-18.23-.44-28.16-8.29-67.49-70.69-116.25-138.19-107.96-58.56,7.19-102.19,53.86-108.27,111.02ZM1130.35,378.14c76.42-9.38,128.66-76.25,119.4-151.68-9.26-75.43-76.13-127.67-152.55-118.29-75.43,9.26-126.68,76-117.42,151.44,9.26,75.43,75.13,127.8,150.57,118.53ZM701.92,269.54c2.4,93.4-.86,165.34-8.31,227.71-4.84,59.03-10.14,97.96-17.01,124-1.38,5.21-3.24,6.44-5.22,6.69-1.99.24-5.09-.38-3.95-7.58,6.08-57.17,2.83-214.95-29.89-284.48-35.82-70.16-87.31-120.26-169.69-110.14-106.2,13.04-146.48,111.68-181.45,278.19l-24.59,127.95-7.16,40.17c-1.25,6.2-2.12,7.31-5.1,7.68-2.98.36-4.21-1.5-3.83-6.58l5-74.16c4.98-66.1,16.32-146.08,31.26-229.52,1.64-11.28,2.16-23.44.58-36.34-8.29-67.49-70.69-116.25-138.19-107.96-55.58,6.82-97.84,48.28-107.39,101.85C9.83,483.48-9.74,644.06,5.13,765.15c23.64,192.55,142.43,265.62,262.53,250.88,110.17-13.53,166.68-103.09,205.9-226.79,7.87-26.15,9.65-44.51,11.67-60.88.51-4.09,1.38-5.21,3.36-5.45,2.98-.36,4.09.51,6.06,8.32l8.11,33.26c37.4,140.49,98.4,210.58,194.67,198.76,106.2-13.04,180.73-119.92,222.98-325.6,20.67-94.22,32.71-209.55,28.6-374.28-1.71-71.32-63.22-129.26-138.66-120-63.52,7.8-110.04,63.89-108.43,126.16ZM1753.59,735.85l26.14-213.78c24.12-197.41-112.13-338.86-291.78-316.8-124.07,15.23-213.33,108.81-230.51,247.94l-36.61,292.64c-.88,9.18-.78,18.23.44,28.16,8.29,67.49,70.69,116.25,138.19,107.96,58.56-7.19,102.2-53.86,108.27-111.02l35.24-287.44c2.52-20.46,5.27-30.87,15.2-32.09,26.8-3.29,18.56,19.89,16.04,40.35l-27.52,218.99c-.89,9.18-.79,18.23.43,28.16,8.29,67.49,70.7,116.25,138.19,107.96,58.56-7.19,102.2-53.86,108.28-111.02ZM1862.36,111.94l-14.52,119.66c-.14,7.07-.77,10.17-.4,13.15.97,7.94,5.55,12.42,12.5,11.56,15.88-1.95,34.77-20.39,71.15-35.94,2.86-1.36,5.83-1.72,7.07.14,1.24,1.86,1.48,3.85-3.12,7.44-71.93,54.17-101.08,112.15-116.24,234.92l-11.11,90.03c-10.22,80.85.68,145,38.9,193.7,36.86,45.85,87.55,64.81,149.09,57.26,47.64-5.85,83.67-32.44,98.38-68.5,17.59-45.48,9.76-92.88-18.33-124.7l-15.22-17.27c-4.7-5.47-6.16-17.38-2.77-38.95,4.04-32.74,8.09-65.47,11.12-90.02,7.57-61.38,21.1-66.06,102.49-76.06,71.46-8.77,115.36-61.52,107.2-128.02-8.29-67.49-65.63-107.81-140.07-98.66-10.92,1.34-21.84,2.68-32.63,5.01l3.41-29.64c.89-9.18.79-18.23-.43-28.16-8.29-67.49-70.7-116.25-138.19-107.96-58.56,7.19-102.2,53.86-108.28,111.02Z"/>
</svg>